<?xml version="1.0" encoding="UTF-8"?>
<svg id="Ebene_1" xmlns="http://www.w3.org/2000/svg" version="1.1" viewBox="0 0 900 900">
  <!-- Generator: Adobe Illustrator 29.0.1, SVG Export Plug-In . SVG Version: 2.1.0 Build 192)  -->
  <defs>
    <style>
      .st0 {
        fill: #1d1d1b;
      }

      .st1 {
        fill: none;
        stroke: #1d1d1b;
        stroke-miterlimit: 10;
        stroke-width: 18px;
      }
    </style>
  </defs>
  <path class="st0" d="M362.76,662.17l-37.54-3.66,58.6-310.88,39.37,3.66-60.44,310.88ZM391.14,495.05l.46-15.57c15.87-7.02,31.97-12.82,48.3-17.4,16.32-4.58,32.74-7.63,49.22-9.16l.92,35.71-98.89,6.41ZM510.18,662.17l-37.54-3.66,59.06-310.88,39.37,3.66-60.89,310.88Z"/>
  <path class="st0" d="M285.67,423.19c12.67-12.69,27.71-26.34,45.33-40,18.65-14.46,36.59-26.15,52.82-35.56,33.78-22.18,67.56-44.37,101.34-66.55l69.32,56.65c11.06,9.04,22.64,17.42,34.68,25.12l58.26,37.22c-11.21-23.27-26.14-44.55-44.2-63l-97.11-99.23-177.85,102.78c-23.12,13.79-48.9,22.52-75.64,25.64,11.02,18.98,22.05,37.96,33.07,56.93Z"/>
  <path class="st1" d="M764.74,450c0,173.83-140.91,314.74-314.74,314.74s-314.74-140.91-314.74-314.74S276.17,135.26,450,135.26c105.86,0,199.52,52.27,256.57,132.4,36.63,51.44,58.17,114.37,58.17,182.34Z"/>
  <path class="st1" d="M505.1,100.52"/>
</svg>