<?xml version="1.0" encoding="UTF-8"?>
<svg id="Ebene_1" data-name="Ebene 1" xmlns="http://www.w3.org/2000/svg" viewBox="0 0 859.35 188.31">
  <defs>
    <style>
      .cls-1 {
        fill: #1d1d1b;
      }
    </style>
  </defs>
  <g>
    <path class="cls-1" d="M41.38,159.41l-14.1-1.38,22.02-116.79,14.79,1.38-22.7,116.79ZM52.05,96.63l.17-5.85c5.96-2.64,12.01-4.82,18.15-6.54,6.13-1.72,12.3-2.86,18.49-3.44l.34,13.42-37.15,2.41ZM96.77,159.41l-14.1-1.38,22.19-116.79,14.79,1.38-22.88,116.79Z"/>
    <path class="cls-1" d="M149.23,160.62c-6.42,0-12.1-1.49-17.03-4.47-4.93-2.98-8.83-7.14-11.7-12.47-2.87-5.33-4.3-11.38-4.3-18.15,0-7.34,1.6-14.68,4.82-22.02,3.21-7.34,8.31-14.33,15.31-20.98,6.99-6.65,16-12.73,27-18.23l6.19,12.56c-10.21,5.39-18.61,10.98-25.2,16.77-6.6,5.79-11.44,11.78-14.53,17.97-3.1,6.19-4.64,12.5-4.64,18.92,0,6.77,1.66,11.9,4.99,15.39,3.32,3.5,8.08,5.25,14.28,5.25,4.82,0,9.26-1.14,13.33-3.44,4.07-2.29,7.48-5.93,10.23-10.92s4.58-11.46,5.5-19.44c.92-7.97.63-17.51-.86-28.64l13.93-3.27c1.72,13.53,1.83,25.05.34,34.57-1.49,9.52-4.1,17.26-7.83,23.22-3.73,5.96-8.2,10.35-13.42,13.16-5.22,2.81-10.69,4.21-16.43,4.21Z"/>
    <path class="cls-1" d="M204.61,159.41l-13.59-1.38,16.86-90.3,14.1,1.38-6.88,35.6-3.96-2.41c3.55-7.22,7.37-13.5,11.44-18.83,4.07-5.33,8.26-9.49,12.56-12.47,4.3-2.98,8.63-4.47,12.99-4.47,2.41,0,4.61.37,6.62,1.12,2,.75,3.64,1.98,4.9,3.7,1.26,1.72,2.24,3.96,2.92,6.71s1.03,6.14,1.03,10.15c0,3.44-.17,6.82-.52,10.15-.34,3.33-.69,6.25-1.03,8.77l-3.61-3.78c3.9-7.91,8-14.59,12.3-20.04,4.3-5.44,8.69-9.6,13.16-12.47,4.47-2.86,8.83-4.3,13.07-4.3,2.64,0,4.93.37,6.88,1.12,1.95.75,3.61,1.98,4.99,3.7,1.38,1.72,2.43,3.99,3.18,6.79.74,2.81,1.12,6.22,1.12,10.23,0,5.39-.32,11.52-.95,18.4-.63,6.88-1.46,14.71-2.49,23.48-1.03,8.77-2.29,18.49-3.78,29.15l-14.28-1.2c.69-7.45,1.66-14.28,2.92-20.47,1.26-6.19,2.58-11.81,3.96-16.86,1.38-5.04,2.67-9.57,3.87-13.59,1.2-4.01,2.21-7.48,3.01-10.41.8-2.92,1.2-5.36,1.2-7.31,0-2.98-1.06-5.33-3.18-7.05-2.12-1.72-5.48-2.58-10.06-2.58-5.5,0-10.38,1.32-14.62,3.96-4.24,2.64-7.89,7.03-10.92,13.16-3.04,6.14-5.42,14.36-7.14,24.68-.92,5.28-1.87,11.09-2.84,17.46-.98,6.36-1.92,13.1-2.84,20.21l-14.45-1.2c.92-7.34,2.09-14.13,3.53-20.38,1.43-6.25,2.87-11.95,4.3-17.11,1.43-5.16,2.81-9.77,4.13-13.85,1.32-4.07,2.41-7.57,3.27-10.49s1.29-5.3,1.29-7.14c0-1.72-.43-3.29-1.29-4.73-.86-1.43-2.3-2.55-4.3-3.35-2.01-.8-4.62-1.2-7.83-1.2-3.78,0-7.28.63-10.49,1.89-3.21,1.26-6.14,3.47-8.77,6.62-2.64,3.16-4.99,7.37-7.05,12.64-2.06,5.27-3.84,11.98-5.33,20.12l-7.4,38.18Z"/>
    <path class="cls-1" d="M353.9,160.44c-6.19,0-11.81-1.29-16.86-3.87-5.05-2.58-9.06-6.51-12.04-11.78-2.98-5.27-4.47-11.98-4.47-20.12s1.4-16.25,4.21-23.31c2.81-7.05,6.51-13.21,11.09-18.49,4.58-5.27,9.69-9.34,15.31-12.21,5.62-2.87,11.18-4.3,16.68-4.3,4.58,0,8.6.92,12.04,2.75,3.44,1.84,6.02,4.39,7.74,7.65,1.72,3.27,2.58,7.08,2.58,11.44,0,5.16-1.72,9.4-5.16,12.73-3.44,3.33-8.51,5.73-15.22,7.22-6.71,1.49-14.94,2.18-24.68,2.06v-4.3c6.3-1.03,11.9-2.15,16.77-3.35,4.87-1.2,8.94-2.52,12.21-3.96,3.27-1.43,5.76-3.01,7.48-4.73,1.72-1.72,2.58-3.72,2.58-6.02,0-2.75-1.06-4.84-3.18-6.28-2.12-1.43-5.31-2.15-9.55-2.15-5.5,0-10.81,1.29-15.91,3.87-5.1,2.58-9.69,6.14-13.76,10.66-4.07,4.53-7.31,9.78-9.72,15.74-2.41,5.96-3.61,12.44-3.61,19.44,0,5.16.8,9.2,2.41,12.13,1.6,2.92,3.81,4.99,6.62,6.19,2.81,1.2,6.05,1.81,9.72,1.81,5.62,0,11.12-1.2,16.51-3.61,5.39-2.41,10.32-5.44,14.79-9.12l6.19,12.56c-2.75,2.18-5.79,4.13-9.12,5.85-3.33,1.72-6.82,3.07-10.49,4.04-3.67.97-7.4,1.46-11.18,1.46Z"/>
    <path class="cls-1" d="M411.69,159.58c-4.59,0-8.83-.49-12.73-1.46-3.9-.97-7.51-2.26-10.84-3.87l3.96-14.96c3.1,1.49,6.54,2.84,10.32,4.04,3.78,1.2,7.6,2.12,11.44,2.75,3.84.63,7.25.95,10.23.95,6.65,0,11.7-1.35,15.14-4.04,3.44-2.69,5.16-6.91,5.16-12.64,0-3.21-.86-6.19-2.58-8.94s-3.93-5.42-6.62-8c-2.7-2.58-5.59-5.16-8.69-7.74-3.1-2.58-6.02-5.3-8.77-8.17-2.75-2.87-4.99-6.02-6.71-9.46-1.72-3.44-2.58-7.34-2.58-11.7,0-5.62,1.29-10.6,3.87-14.96,2.58-4.36,6.13-8,10.66-10.92,4.53-2.92,62.13-39.84,157.36-41.32,82.12-1.27,190.54,11.59,253.03,19.99,29.72,4,24.53-25.02,25.69-25.05,0,0,5.1,45.37-26.54,41.2-63.11-8.31-169.78-20.57-251.92-19.24-100.49,1.64-157.65,36.91-159.6,38.34-1.95,1.44-3.38,2.98-4.3,4.64-.92,1.66-1.38,3.47-1.38,5.42,0,1.84.69,3.76,2.06,5.76,1.38,2.01,3.18,4.02,5.42,6.02,2.24,2.01,4.7,4.13,7.4,6.36,2.69,2.24,5.39,4.53,8.08,6.88,2.69,2.35,5.16,4.93,7.4,7.74,2.24,2.81,4.04,5.79,5.42,8.94,1.38,3.16,2.06,6.57,2.06,10.23,0,5.62-1.06,10.44-3.18,14.45-2.12,4.01-5.07,7.46-8.86,10.32-3.78,2.87-8.2,4.99-13.24,6.36-5.05,1.38-10.44,2.06-16.17,2.06Z"/>
    <path class="cls-1" d="M469.14,188.31l-13.42-1.2,21.84-119.71,13.76,1.38-6.36,35.26-3.61.52c4.36-9.52,8.83-17.05,13.42-22.62,4.58-5.56,9.17-9.52,13.76-11.87,4.58-2.35,9-3.53,13.24-3.53,4.01,0,7.42.83,10.23,2.49,2.81,1.66,4.93,4.21,6.36,7.65,1.43,3.44,2.15,8.03,2.15,13.76,0,6.19-.89,12.47-2.67,18.83-1.78,6.36-4.67,12.62-8.69,18.75-4.02,6.14-9.35,12.01-16,17.63-6.65,5.62-14.79,10.72-24.42,15.31l-5.16-13.07c8.83-4.24,16.43-8.77,22.79-13.59s11.58-9.72,15.65-14.71c4.07-4.99,7.11-9.89,9.12-14.71,2-4.82,3.01-9.4,3.01-13.76,0-4.01-1.29-6.99-3.87-8.94-2.58-1.95-6.39-2.92-11.44-2.92-4.59,0-8.92.83-12.99,2.49-4.07,1.66-7.71,4.3-10.92,7.91-3.21,3.61-5.99,8.31-8.34,14.1-2.35,5.79-4.27,12.81-5.76,21.07l-11.7,63.47Z"/>
    <path class="cls-1" d="M553.59,159.41l-13.76-1.38,23.22-121.95,13.93,1.55-13.42,67.25-3.78-2.58c3.9-7.57,7.94-14.02,12.12-19.35,4.18-5.33,8.43-9.4,12.73-12.21,4.3-2.81,8.63-4.21,12.99-4.21,3.44,0,6.28.75,8.51,2.24,2.24,1.49,3.93,3.81,5.07,6.97,1.14,3.16,1.72,7.31,1.72,12.47,0,5.62-.32,11.9-.95,18.83-.63,6.94-1.44,14.71-2.41,23.31-.97,8.6-2.21,18.29-3.7,29.07l-14.45-1.2c.69-7.34,1.66-14.1,2.92-20.3,1.26-6.19,2.58-11.87,3.96-17.03,1.38-5.16,2.67-9.77,3.87-13.85,1.21-4.07,2.21-7.59,3.01-10.58.8-2.98,1.21-5.39,1.21-7.22,0-2.86-1.06-5.13-3.18-6.79-2.12-1.66-5.53-2.49-10.23-2.49-5.16,0-9.83,1.2-14.02,3.61-4.19,2.41-7.83,6.62-10.92,12.64-3.1,6.02-5.5,14.3-7.22,24.85l-7.22,38.36Z"/>
    <path class="cls-1" d="M653.69,160.44c-6.19,0-11.81-1.29-16.86-3.87-5.05-2.58-9.06-6.51-12.04-11.78-2.98-5.27-4.47-11.98-4.47-20.12s1.4-16.25,4.21-23.31c2.81-7.05,6.51-13.21,11.09-18.49,4.58-5.27,9.69-9.34,15.31-12.21,5.62-2.87,11.18-4.3,16.68-4.3,4.58,0,8.6.92,12.04,2.75,3.44,1.84,6.02,4.39,7.74,7.65,1.72,3.27,2.58,7.08,2.58,11.44,0,5.16-1.72,9.4-5.16,12.73-3.44,3.33-8.51,5.73-15.22,7.22-6.71,1.49-14.94,2.18-24.68,2.06v-4.3c6.3-1.03,11.89-2.15,16.77-3.35,4.87-1.2,8.94-2.52,12.21-3.96,3.27-1.43,5.76-3.01,7.48-4.73,1.72-1.72,2.58-3.72,2.58-6.02,0-2.75-1.06-4.84-3.18-6.28-2.12-1.43-5.31-2.15-9.55-2.15-5.5,0-10.81,1.29-15.91,3.87-5.1,2.58-9.69,6.14-13.76,10.66-4.07,4.53-7.31,9.78-9.72,15.74-2.41,5.96-3.61,12.44-3.61,19.44,0,5.16.8,9.2,2.41,12.13,1.6,2.92,3.81,4.99,6.62,6.19,2.81,1.2,6.05,1.81,9.72,1.81,5.62,0,11.12-1.2,16.51-3.61,5.39-2.41,10.32-5.44,14.79-9.12l6.19,12.56c-2.75,2.18-5.79,4.13-9.12,5.85-3.33,1.72-6.82,3.07-10.49,4.04-3.67.97-7.4,1.46-11.18,1.46Z"/>
    <path class="cls-1" d="M704.6,159.41l-13.07-1.38,16.86-90.3,13.93,1.38-6.36,34.23-2.92-2.58c3.21-6.65,6.71-12.5,10.49-17.54,3.78-5.04,7.68-9.06,11.7-12.04,4.01-2.98,8.31-4.53,12.9-4.64l-.17,15.14c-4.82,0-9.09.55-12.81,1.63-3.73,1.09-6.97,3.07-9.72,5.93-2.75,2.87-5.19,6.91-7.31,12.13-2.12,5.22-3.99,11.95-5.59,20.21l-7.91,37.84Z"/>
    <path class="cls-1" d="M779.42,160.44c-6.19,0-11.81-1.29-16.86-3.87-5.05-2.58-9.06-6.51-12.04-11.78-2.98-5.27-4.47-11.98-4.47-20.12s1.4-16.25,4.21-23.31c2.81-7.05,6.51-13.21,11.09-18.49,4.58-5.27,9.69-9.34,15.31-12.21,5.62-2.87,11.18-4.3,16.68-4.3,4.58,0,8.6.92,12.04,2.75,3.44,1.84,6.02,4.39,7.74,7.65,1.72,3.27,2.58,7.08,2.58,11.44,0,5.16-1.72,9.4-5.16,12.73-3.44,3.33-8.51,5.73-15.22,7.22-6.71,1.49-14.94,2.18-24.68,2.06v-4.3c6.3-1.03,11.89-2.15,16.77-3.35,4.87-1.2,8.94-2.52,12.21-3.96,3.27-1.43,5.76-3.01,7.48-4.73,1.72-1.72,2.58-3.72,2.58-6.02,0-2.75-1.06-4.84-3.18-6.28-2.12-1.43-5.31-2.15-9.55-2.15-5.5,0-10.81,1.29-15.91,3.87-5.1,2.58-9.69,6.14-13.76,10.66-4.07,4.53-7.31,9.78-9.72,15.74-2.41,5.96-3.61,12.44-3.61,19.44,0,5.16.8,9.2,2.41,12.13,1.6,2.92,3.81,4.99,6.62,6.19,2.81,1.2,6.05,1.81,9.72,1.81,5.62,0,11.12-1.2,16.51-3.61,5.39-2.41,10.32-5.44,14.79-9.12l6.19,12.56c-2.75,2.18-5.79,4.13-9.12,5.85-3.33,1.72-6.82,3.07-10.49,4.04-3.67.97-7.4,1.46-11.18,1.46Z"/>
  </g>
  <path class="cls-1" d="M5.59,64.3L87.37,16.25l26.04,21.28c4.16,3.4,8.5,6.55,13.03,9.44l21.89,13.98c-4.21-8.74-9.82-16.73-16.6-23.67L95.23,0,28.42,38.61c-8.69,5.18-18.37,8.46-28.42,9.63l5.59,16.05Z"/>
</svg>